# xmcd CD database file
#
# Track frame offsets:
#	150
#	19010
#	30910
#	48507
#	66262
#	82017
#	99224
#	114701
#	130191
#	150998
#	169017
#	189119
#	204952
#	218781
#	234979
#	248652
#	265774
#	285073
#	302671
#	316503
#	331384
#
# Disc length: 4638 seconds
#
# Revision: 0
# Processed by: cddbd v1.5.2PL0 Copyright (c) Steve Scherf et al.
# Submitted via: CDex 1.51
#
DISCID=fe121c15
DTITLE=Various Artist - The Best of Country Music Channel 2006 Disc One
DYEAR=2006
DGENRE=Country
TTITLE0=Troy Cassar-Daley - Lonesome but Free
TTITLE1=Beccy Cole - A Better Woman
TTITLE2=John Williamson - Little Girl from the Dryland
TTITLE3=Adam Brand- This Time of Year
TTITLE4=Steve Forde and The Flange - No Wrong
TTITLE5=Catherine Britt - Too Far Gone
TTITLE6=Adam Harvey - Missing Heroes
TTITLE7=Natalie Howard - You Never Knew Me
TTITLE8=Luke O'Shea and Medicine Wheel - Listen to the Words
TTITLE9=Aleyce Simmonds - Might Mighty Love
TTITLE10=Travis Collins - I Was Wrong
TTITLE11=Bill Chambers - Chasing Rainbows
TTITLE12=Ronni Rae Rivers - It's Only Make Believe
TTITLE13=Jake Nickolai - 3 Days Drivin'
TTITLE14=The Flood - Hello Blue Sky
TTITLE15=The Sunny Cowgirls - Little Bit Rusty
TTITLE16=Karl Broadie - Long, Long Way
TTITLE17=Felicity Urquhart - The Flood
TTITLE18=Tani Kernaghan - Harley McTaggart
TTITLE19=Amber Lawrence - I've Got the Blues
TTITLE20=Harley Smith - In the Dark
EXTD=YEAR: 2006
EXTT0=
EXTT1=
EXTT2=
EXTT3=
EXTT4=
EXTT5=
EXTT6=
EXTT7=
EXTT8=
EXTT9=
EXTT10=
EXTT11=
EXTT12=
EXTT13=
EXTT14=
EXTT15=
EXTT16=
EXTT17=
EXTT18=
EXTT19=
EXTT20=
PLAYORDER=
